# xmcd
#
# Track frame offsets:
# 150
# 16563
# 34813
# 48790
# 66100
# 86039
# 106068
# 124242
# 140118
# 157387
# 170780
# 185831
#
# Disc length: 2703 seconds
#
#
# Revision: 3
# Processed by: cddbd v1.5.1PL0 Copyright (c) Steve Scherf et al.
# Submitted via: FreeRIP 2.35 
#
DISCID=a90a8d0c
DTITLE=Diana DeGarmo - Blue Skies
DYEAR=2004
DGENRE=Rock
TTITLE0=Cardboard Castles
TTITLE1=Blue Skies
TTITLE2=Emotional
TTITLE3=Then I Woke Up
TTITLE4=All I Never Wanted
TTITLE5=Go On and Cry
TTITLE6=The Difference In Me
TTITLE7=Till You Want Me
TTITLE8=Dreams
TTITLE9=Boy Like You
TTITLE10=Dream, Dream, Dream
TTITLE11=Don't Cry Out Loud
EXTD=
EXTT0=
EXTT1=
EXTT2=
EXTT3=
EXTT4=
EXTT5=
EXTT6=
EXTT7=
EXTT8=
EXTT9=
EXTT10=
EXTT11=
PLAYORDER=
